<svg width="1400" height="860" viewBox="0 0 1400 860" fill="none" xmlns="http://www.w3.org/2000/svg">
  <rect width="1400" height="860" rx="36" fill="#0D1218"/>
  <path d="M234 582L496 436L698 540L932 382L1160 488" stroke="url(#mesh1)" stroke-width="5"/>
  <path d="M234 582L234 360L496 216L496 436" stroke="#2D4458" stroke-width="3"/>
  <path d="M496 436L496 216L698 322L698 540" stroke="#38526D" stroke-width="3"/>
  <path d="M698 540L698 322L932 170L932 382" stroke="#35506C" stroke-width="3"/>
  <path d="M932 382L932 170L1160 288L1160 488" stroke="#2A455B" stroke-width="3"/>
  <rect x="180" y="548" width="108" height="84" rx="10" fill="#1C2733" stroke="#48637B"/>
  <rect x="442" y="392" width="108" height="84" rx="10" fill="#1B2634" stroke="#53708D"/>
  <rect x="644" y="496" width="108" height="84" rx="10" fill="#1A2636" stroke="#5780A2"/>
  <rect x="878" y="338" width="108" height="84" rx="10" fill="#1A2636" stroke="#4F7CA3"/>
  <rect x="1106" y="444" width="108" height="84" rx="10" fill="#1B2731" stroke="#4B6882"/>
  <circle cx="234" cy="582" r="14" fill="#91CBFF"/>
  <circle cx="496" cy="436" r="18" fill="#CDE6FF"/>
  <circle cx="698" cy="540" r="20" fill="#7CBEFF"/>
  <circle cx="932" cy="382" r="18" fill="#6FDBFF"/>
  <circle cx="1160" cy="488" r="14" fill="#CDE6FF"/>
  <defs>
    <linearGradient id="mesh1" x1="234" y1="582" x2="1160" y2="488" gradientUnits="userSpaceOnUse">
      <stop stop-color="#69AFFF"/>
      <stop offset="0.5" stop-color="#C7EAFF"/>
      <stop offset="1" stop-color="#57C9FF"/>
    </linearGradient>
  </defs>
</svg>
