<svg width="900" height="680" viewBox="0 0 900 680" fill="none" xmlns="http://www.w3.org/2000/svg">
  <rect width="900" height="680" rx="28" fill="#09161B"/>
  <circle cx="236" cy="340" r="34" fill="#DDF9FF"/>
  <circle cx="666" cy="340" r="34" fill="#DDF9FF"/>
  <path d="M286 340C342 266 408 250 450 340C492 430 560 414 616 340" stroke="url(#wave1)" stroke-width="8" stroke-linecap="round"/>
  <path d="M286 294C350 236 402 230 450 294C498 358 550 352 616 294" stroke="url(#wave2)" stroke-width="5" stroke-linecap="round" opacity="0.6"/>
  <path d="M286 386C350 444 402 450 450 386C498 322 550 328 616 386" stroke="url(#wave3)" stroke-width="5" stroke-linecap="round" opacity="0.6"/>
  <defs>
    <linearGradient id="wave1" x1="286" y1="340" x2="616" y2="340" gradientUnits="userSpaceOnUse">
      <stop stop-color="#66CAFF"/>
      <stop offset="0.5" stop-color="#76F0DF"/>
      <stop offset="1" stop-color="#9CC7FF"/>
    </linearGradient>
    <linearGradient id="wave2" x1="286" y1="294" x2="616" y2="294" gradientUnits="userSpaceOnUse">
      <stop stop-color="#5DAFFF"/>
      <stop offset="1" stop-color="#82F0DD"/>
    </linearGradient>
    <linearGradient id="wave3" x1="286" y1="386" x2="616" y2="386" gradientUnits="userSpaceOnUse">
      <stop stop-color="#82F0DD"/>
      <stop offset="1" stop-color="#8BB2FF"/>
    </linearGradient>
  </defs>
</svg>
